<?xml version="1.0" standalone="no"?>
<!DOCTYPE svg PUBLIC "-//W3C//DTD SVG 20010904//EN"
 "http://www.w3.org/TR/2001/REC-SVG-20010904/DTD/svg10.dtd">
<svg version="1.0" xmlns="http://www.w3.org/2000/svg"
 width="90" height="30" viewBox="0 0 662.000000 171.000000"
 preserveAspectRatio="xMidYMid meet">

<g transform="translate(0.000000,171.000000) scale(0.100000,-0.100000)"
fill="#000000" stroke="none">
<path d="M1961 1128 c-78 -27 -131 -117 -116 -197 16 -85 67 -124 196 -146 94
-17 121 -35 117 -79 -5 -49 -46 -71 -132 -70 -76 0 -129 22 -160 65 -13 19
-14 18 -20 -12 -10 -51 -7 -106 7 -117 24 -19 121 -42 181 -42 82 0 129 15
173 53 43 38 63 82 63 139 0 96 -54 144 -192 172 -87 17 -105 27 -119 64 -20
51 43 90 124 77 49 -8 73 -20 105 -48 l22 -20 0 20 c0 11 3 40 6 64 6 44 5 45
-32 63 -47 23 -173 30 -223 14z"/>
<path d="M3713 1133 c-10 -3 -13 -73 -13 -299 l0 -294 60 0 60 0 0 115 0 115
38 0 38 0 50 -117 51 -117 66 0 c37 -1 67 -1 67 -1 -1 0 -29 58 -63 129 l-63
129 42 42 c101 102 54 264 -86 294 -51 11 -224 14 -247 4z m254 -128 c32 -37
30 -80 -6 -116 -26 -25 -37 -29 -85 -29 l-56 0 0 91 0 92 62 -6 c51 -5 67 -10
85 -32z"/>
<path d="M2392 913 c3 -197 5 -222 24 -264 39 -84 121 -125 233 -117 90 7 141
40 178 117 27 55 28 60 31 269 l4 212 -60 0 -61 0 -3 -207 c-2 -173 -6 -213
-20 -239 -33 -60 -120 -69 -171 -19 -32 32 -37 75 -37 291 l0 174 -61 0 -61 0
4 -217z"/>
<path d="M3010 835 l0 -295 60 0 60 0 2 185 3 185 70 -115 c80 -132 67 -133
145 10 84 154 79 158 80 -67 l0 -198 55 0 55 0 0 295 0 296 -62 -3 -63 -3 -66
-117 c-36 -65 -68 -120 -71 -123 -3 -3 -39 51 -79 120 l-73 125 -58 0 -58 0 0
-295z"/>
<path d="M4250 835 l0 -295 60 0 60 0 0 295 0 295 -60 0 -60 0 0 -295z"/>
<path d="M4530 1076 l0 -54 127 6 126 5 -46 -84 c-25 -46 -86 -156 -134 -244
-80 -143 -87 -160 -69 -162 12 -1 110 -4 219 -5 l197 -3 0 55 0 55 -131 -3
-131 -4 13 24 c7 13 60 113 119 223 59 110 112 210 119 223 l12 22 -211 0
-210 0 0 -54z"/>
<path d="M5080 835 l0 -295 164 0 164 0 4 50 3 50 -112 0 -113 0 0 86 0 85 85
-3 85 -3 0 53 0 52 -85 0 -85 0 0 61 0 62 105 -5 105 -5 0 54 0 53 -160 0
-160 0 0 -295z"/>
<path d="M5868 835 l-105 -295 49 -1 c26 -1 53 -2 60 -3 6 -1 21 28 33 64 l22
65 103 0 103 0 20 -62 20 -63 64 0 c48 0 64 3 61 13 -45 123 -201 555 -204
565 -2 8 -24 12 -62 12 l-58 0 -106 -295z m197 35 l33 -100 -70 0 c-54 0 -69
3 -65 13 3 7 17 55 33 105 15 51 29 90 32 87 3 -2 20 -50 37 -105z"/>
<path d="M6390 835 l0 -295 60 0 60 0 0 295 0 295 -60 0 -60 0 0 -295z"/>
</g>
</svg>
